<svg fill="none" height="100" viewBox="0 0 100 100" width="100" xmlns="http://www.w3.org/2000/svg"><g fill="#707070"><path d="m25.91 26.2613.06.17c.41 1.18.77 2.56 1.08 3.77.61 2.37 1.25 4.83 2.34 6.72l.63 1.08-3.25.2401-2.65-2.6501c-.07.05-.14.11-.23.19s-.15.16-.2.23l7.68 7.68s.07.07.11.1l1.46 1.31-1.89.1401c-.1.17-.22.4799-.25.6799l4.91 4.9101c.2.2.42.3999.69.5999l1.42 1.11-1.57.25c-.1.17-.2.48-.23.68l5.71 5.7101c.38.38.8.7199 1.3 1.0599l.95.64-.79.5501c-.05.18-.1.48-.09.65l6.29 6.29c1.93 1.93 4.59 2.92 7.31 2.71l13.07-.97 6.66 6.6599c.06-.04.13-.1.2-.17l-38.58-38.58-1.13-.25c-.6-.13-1.2-.18-1.78-.14l-4.26.32-.26-.32c-1.49-1.86-2.27-4.89-2.96-7.56-.18-.71-.36-1.41-.55-2.08l-.36-1.27-3.59-3.59c-.07.07-.13.14-.17.2l2.95 2.95zm34.55 34.55-2.26-.2699c-.63-.0801-1.24-.0901-1.82-.0501l-.93.07c-.01.18 0 .4201.04.5901l.93-.07c2.54-.19 5.04.7399 6.84 2.5399l5.92 5.9201-12.56.93c-2.54.19-5.04-.7401-6.84-2.54l-5.92-5.9201 5.56-.41c.01-.18 0-.4199-.04-.5999l-.99.07c-2.33.1699-4.6-.6801-6.25-2.32l-5.4-5.4001 11.47-.85c2.33-.17 4.61.67 6.26 2.32l5.98 5.98zm-8.67-8.67-2.17-.2c-.55-.05-1.01-.06-1.45-.03l-6.67.5c-2 .15-3.96-.58-5.38-2l-4.6-4.6 9.82-.7299c2-.15 3.96.58 5.38 2l5.07 5.07zm-16.63-13.92c1.6-.12 3.17.46 4.31 1.6l4.74 4.74-2.01-.09c-.33-.01-.62-.01-.89 0l-5.21.39c-1.6.12-3.17-.47-4.31-1.6l-4.47-4.47 7.83-.58z"/><path d="m76.38 77.2613-6.77-6.77-12.9.96c-2.82.22-5.6-.82-7.6-2.82l-6.39-6.39v-.14c-.02-.23.03-.57.1-.78l.04-.12.45-.31-.5-.33c-.52-.35-.96-.71-1.35-1.1l-5.84-5.84.02-.18c.03-.24.15-.6.28-.81l.09-.16.9-.14-.74-.58c-.28-.22-.51-.42-.72-.63l-5.04-5.04.03-.19c.04-.25.17-.6.3-.81l.1-.16 1.21-.09-.93-.84-7.9-7.9.19-.26c.06-.08.13-.17.24-.27.1-.1.19-.18.27-.23l.26-.19 2.75 2.75 2.48-.18-.33-.56c-1.12-1.94-1.76-4.41-2.38-6.81-.32-1.23-.67-2.58-1.07-3.74l-.03-.09-3.11-3.11.19-.26c.05-.07.12-.15.2-.24l.26-.28 3.93 3.93.38 1.36c.19.67.37 1.37.55 2.09.68 2.64 1.45 5.63 2.89 7.42l.14.17 4.06-.3c.61-.05 1.25 0 1.89.14l1.24.28.08.08 38.85 38.85-.28.26c-.09.08-.17.15-.24.2l-.26.19zm-31.66-14.93 5.34 5.34c1.73 1.73 4.11 2.61 6.55 2.43l11.74-.87-5.34-5.34c-1.73-1.73-4.11-2.62-6.55-2.43l-1.25.09-.07-.31c-.05-.21-.07-.49-.05-.71l.02-.32 1.25-.09c.6-.05 1.24-.03 1.89.05l1.18.14-5.22-5.22c-1.57-1.57-3.75-2.38-5.97-2.22l-10.66.79 4.82 4.82c1.57 1.57 3.74 2.37 5.96 2.22l1.31-.1.07.32c.05.21.07.49.05.7l-.02.32-5.06.38zm-1.21-.68v.01l3.32-.25c-.77-.09-1.53-.29-2.24-.59l.05.03-1.12.79zm16.36-.54c.42.14.84.3 1.24.5l-.4-.4zm-8.63-8.65c.4.12.79.27 1.16.45l-.37-.37-.79-.07zm-13.42-.4.9.71-.73.12 2.05-.15c-.77-.1-1.52-.33-2.22-.67zm-5.45-5.95 4.02 4.02c1.34 1.34 3.19 2.03 5.08 1.89l6.67-.5c.46-.03.94-.02 1.51.03l1.13.11-4.33-4.33c-1.34-1.34-3.19-2.03-5.08-1.89l-9.01.67zm11.3-1.21c.38.1.76.23 1.12.39l-.36-.36-.77-.03zm-10.79-.37.8.73 1.1-.08c-.67-.1-1.31-.32-1.9-.64zm-4.71-5.43 3.89 3.89c1.06 1.06 2.52 1.6 4.01 1.49l5.21-.39c.29-.02.6-.02.94 0l1.05.04-4.06-4.06c-1.06-1.06-2.53-1.61-4.02-1.49zm2.35-.99.04.06h.01z"/><path d="m61.88 42.7312-.55.79-.64-.95c-.33-.5-.68-.92-1.06-1.3l-5.71-5.71c-.19.03-.5.13-.68.23l-.25 1.57-1.11-1.42c-.21-.26-.4-.49-.6-.69l-4.91-4.91c-.2.03-.51.15-.68.25l-.14 1.89-1.31-1.46s-.06-.07-.1-.11l-7.68-7.68c-.07.05-.14.11-.23.2s-.15.16-.19.23l2.65 2.65-.24 3.25-1.08-.63c-1.89-1.09-4.34-1.72-6.72-2.34-1.21-.31-2.59-.67-3.77-1.08l-.17-.06-2.95-2.95c-.06.04-.13.1-.2.17l3.59 3.59 1.27.36c.67.19 1.37.37 2.08.55 2.67.69 5.7 1.47 7.56 2.96l.32.26-.32 4.26c-.04.58 0 1.18.14 1.78l.25 1.13 38.58 38.58c.07-.07.13-.14.17-.2l-6.66-6.66.97-13.07c.2-2.72-.79-5.38-2.71-7.31l-6.29-6.29c-.16-.01-.47.04-.65.09zm-21.61-3.71c-1.14-1.14-1.72-2.71-1.6-4.31l.58-7.83 4.47 4.47c1.13 1.13 1.72 2.7 1.6 4.31l-.39 5.21c-.02.28-.02.57 0 .89l.09 2.01-4.74-4.74zm7.26 7.26c-1.42-1.42-2.14-3.38-2-5.38l.73-9.82 4.6 4.6c1.42 1.42 2.15 3.38 2 5.38l-.5 6.67c-.03.44-.02.9.03 1.45l.2 2.17-5.07-5.07zm20.86 3.07c1.81 1.81 2.73 4.3 2.54 6.84l-.93 12.56-5.92-5.92c-1.8-1.8-2.73-4.3-2.54-6.84l.07-.93c-.18-.04-.41-.06-.59-.04l-.07.93c-.04.58-.03 1.19.05 1.82l.27 2.26-5.98-5.98c-1.65-1.65-2.5-3.93-2.32-6.26l.85-11.47 5.4 5.4c1.65 1.65 2.5 3.93 2.32 6.25l-.07.99c.18.04.42.06.6.04l.41-5.56 5.92 5.92z"/><path d="m77.06 76.7012-.27-.2699-38.66-38.6601-.28-1.24c-.14-.64-.19-1.27-.14-1.89l.3-4.06-.17-.1299c-1.8-1.44-4.78-2.2101-7.42-2.8901-.72-.19-1.42-.37-2.09-.56l-1.36-.3799-3.93-3.9301.28-.27c.09-.08.17-.16.24-.21l.26-.18 3.2 3.14c1.17.41 2.54.76 3.74 1.07 2.4.62 4.88 1.2601 6.81 2.3801l.56.33.18-2.4801-2.75-2.75.18-.26c.06-.08.13-.17.23-.27s.19-.18.27-.23l.26-.19 7.9 7.9s.06.0701.09.1l.75.83.09-1.21.16-.0999c.21-.13.57-.2601.81-.3001l.19-.03 5.04 5.04c.21.21.42.4401.63.7201l.58.7399.14-.8999.16-.09c.21-.12.57-.2401.81-.27l.18-.0201 5.84 5.84c.4.4.76.84 1.1 1.35l.33.49.31-.45.12-.04c.2-.06.56-.12.78-.11h.14l6.39 6.4c2 2 3.03 4.77 2.82 7.6l-.96 12.9001 6.77 6.77-.19.26c-.05.07-.12.15-.2.24l-.26.28zm-15.92-22.08c.18 0 .39.0201.55.0601l.32.07-.09 1.2599c-.18 2.44.71 4.82 2.43 6.55l5.34 5.3401.87-11.7401c.18-2.43-.7-4.82-2.43-6.55l-5.34-5.34-.38 5.0601-.32.0199c-.22.02-.49 0-.7-.05l-.32-.07.1-1.31c.16-2.22-.64-4.39-2.22-5.96l-4.82-4.82-.79 10.66c-.17 2.22.64 4.39 2.22 5.97l5.21 5.22-.14-1.18c-.08-.65-.1-1.28-.05-1.89l.09-1.26.32-.0199h.15zm.54 5.6301.4.4c-.2-.4-.36-.8101-.5-1.2401zm-8.68-8.6801.37.37c-.18-.38-.33-.76-.45-1.16l.07.79zm-6.42-19.66-.67 9.01c-.14 1.89.55 3.75 1.89 5.08l4.33 4.3301-.11-1.13c-.05-.58-.06-1.0601-.03-1.5101l.5-6.67c.14-1.8899-.55-3.74-1.89-5.09zm14.71 12.2201c.3.7099.5 1.4699.59 2.2399l.25-3.32s0 0-.01 0l-.79 1.12-.03-.05zm-15.89-.1501.36.36c-.16-.36-.29-.74-.39-1.1199l.03.77zm-4.86-5.23 4.06 4.0601-.05-1.0501c-.01-.34-.01-.65.01-.94l.39-5.21c.11-1.4899-.43-2.95-1.49-4.01l-3.89-3.89-.52 7.02c-.11 1.49.43 2.96 1.49 4.02zm11.98-1.39c.34.7001.57 1.4501.67 2.2201l.15-2.0501-.12.73-.71-.9zm-7.52-4.93c.32.59.54 1.2301.64 1.9001l.08-1.1001z"/><path d="m50 98.5412c-26.77 0-48.54001-21.77-48.54001-48.54s21.77001-48.54002 48.54001-48.54002 48.54 21.78002 48.54 48.54002-21.78 48.54-48.54 48.54zm0-95.08002c-25.66 0-46.54001 20.88002-46.54001 46.54002s20.88001 46.54 46.54001 46.54 46.54-20.88 46.54-46.54-20.88-46.54002-46.54-46.54002z"/><path d="m34.1167 63.7917-19.4808 19.4808 1.4142 1.4142 19.4808-19.4808z"/><path d="m83.0167 14.8864-19.4808 19.4808 1.4142 1.4142 19.4808-19.4808z"/></g></svg>