<svg fill="none" height="101" viewBox="0 0 100 101" width="100" xmlns="http://www.w3.org/2000/svg"><g fill="#707070"><path d="m50 99.319c-26.77 0-48.54004-21.77-48.54004-48.54s21.77004-48.53999 48.54004-48.53999 48.54 21.77999 48.54 48.53999-21.78 48.54-48.54 48.54zm0-95.07999c-25.66 0-46.54004 20.87999-46.54004 46.53999s20.88004 46.54 46.54004 46.54 46.54-20.88 46.54-46.54-20.88-46.53999-46.54-46.53999z"/><path d="m50.52 80.8491c-3.54 0-6.68-1.52-8.84-4.29-2.3-2.94-3.11-6.93-2.17-10.65.65-2.6 1.89-5.23 3.39-7.22 2.14-2.84 4.77-4.34 7.6-4.34.41 0 .83.04 1.24.11 2.96.51 5.71 2.57 7.74 5.79 1.72 2.73 2.75 6.06 2.75 8.91 0 6.45-5.25 11.7-11.7 11.7zm-.02-24.5c-2.18 0-4.25 1.23-6 3.54-1.35 1.79-2.46 4.16-3.05 6.5-.79 3.13-.11 6.48 1.81 8.94 1.77 2.27 4.35 3.52 7.26 3.52 5.35 0 9.7-4.35 9.7-9.7 0-2.49-.91-5.42-2.44-7.84-1.72-2.74-3.99-4.47-6.39-4.89-.3-.05-.6-.08-.89-.08z"/><path d="m50.52 90.1491c-5.61 0-10.88-2.18-14.85-6.15s-6.15-9.24-6.15-14.85 2.42-9.57 4.98-13.84c.42-.69.85-1.41 1.26-2.13 1.79-3.09 2.89-6.39 3.28-9.81.65-5.85 5.59-10.26 11.48-10.26 3.59 0 7.04 1.73 9.24 4.62 1.68 2.21 2.2 4.88 2.7 7.47.2 1.05.39 2.05.66 2.93.63 2.14 1.7 4.42 3.35 7.16.23.39.54.9.85 1.43 2.18 3.73 4.2 7.81 4.2 12.43 0 5.61-2.18 10.88-6.15 14.85s-9.24 6.15-14.85 6.15zm0-55.04c-4.88 0-8.96 3.65-9.5 8.49-.42 3.69-1.61 7.25-3.54 10.58-.42.73-.86 1.46-1.28 2.16-2.41 4.02-4.69 7.81-4.69 12.81s1.98 9.85 5.57 13.44 8.36 5.57 13.44 5.57 9.85-1.98 13.44-5.57 5.57-8.36 5.57-13.44c0-4.14-1.89-7.94-3.93-11.42-.3-.52-.61-1.03-.84-1.41-1.74-2.89-2.88-5.31-3.56-7.62-.29-.98-.49-2.02-.7-3.12-.45-2.36-.92-4.79-2.32-6.63-1.82-2.4-4.68-3.83-7.65-3.83z"/><path d="m54.04 31.1191c-.75 0-1.25-.05-1.31-.06l-.79-.09-.09-.79c-.03-.24-.63-6.02 2.69-9.34s9.09-2.71 9.34-2.69l.79.09.09.79c.03.24.63 6.02-2.69 9.34-2.39 2.39-6.07 2.75-8.02 2.75zm-.25-2.01c1.56.02 4.88-.18 6.86-2.15 1.98-1.98 2.18-5.31 2.15-6.86-1.54-.02-4.88.18-6.86 2.16s-2.18 5.31-2.15 6.86z"/><path d="m58.6573 22.8255-6.5336 6.5336 1.4142 1.4142 6.5336-6.5336z"/><path d="m46.8701 31.2891c-2.46 0-7.08-.44-10.08-3.44-4.16-4.16-3.4001-11.44-3.3701-11.75l.0901-.79.79-.09c.31-.03 7.59-.8 11.75 3.37 4.16 4.16 3.4 11.44 3.3699 11.75l-.0899.79-.79.09c-.09 0-.72.08-1.67.08zm-11.51-14.14c-.06 1.89.11 6.55 2.84 9.28s7.39 2.91 9.28 2.84c.06-1.89-.11-6.55-2.84-9.28-2.74-2.74-7.39-2.91-9.28-2.84z"/><path d="m40.0564 20.4415-1.4142 1.4142 9.0793 9.0793 1.4142-1.4142z"/></g></svg>