<svg fill="none" height="101" viewBox="0 0 100 101" width="100" xmlns="http://www.w3.org/2000/svg"><g fill="#707070"><path d="m68.99 81.1691c-.27 0-.55-.03-.83-.08-2.27-.43-3.79-2.64-3.46-5.04l.15-1.09c.12-.9-.19-1.83-.83-2.47l-6.7-6.7c-.93-.93-2.11-1.6-3.42-1.93l-1.13-.28.45-1.07c.44-1.05 1.45-1.64 2.34-1.81.08-.53.31-1.16.86-1.71s1.18-.78 1.71-.86c.17-.89.76-1.9 1.81-2.34l1.07-.45.28 1.13c.33 1.3.99 2.48 1.93 3.42l6.7 6.7c.64.64 1.57.96 2.47.83l1.1-.15c2.39-.33 4.61 1.2 5.04 3.47.22 1.19-.04 2.38-.74 3.35-.69.96-1.77 1.6-2.94 1.76l-.59.08c-.46.06-.83.43-.89.89l-.08.59c-.16 1.18-.8 2.25-1.77 2.94-.75.54-1.62.82-2.52.82zm-12.7-18.54c.9.45 1.73 1.04 2.44 1.75l6.7 6.7c1.08 1.08 1.61 2.64 1.4 4.15l-.15 1.09c-.18 1.32.65 2.58 1.85 2.8.64.12 1.28-.02 1.81-.4s.87-.94.95-1.59l.08-.59c.18-1.35 1.25-2.42 2.6-2.61l.59-.08c.64-.09 1.21-.42 1.58-.95.38-.53.52-1.17.4-1.81-.23-1.2-1.48-2.04-2.8-1.85l-1.1.15c-1.52.2-3.07-.32-4.15-1.4l-6.7-6.7c-.71-.71-1.3-1.54-1.75-2.44-.13.68-.72 1.21-1.43 1.23-.33.01-.6.12-.79.32-.2.2-.3.46-.32.79-.03.71-.55 1.3-1.23 1.43z"/><path d="m48.47 61.9891c-5.91 0-12.4-2.77-17.99-7.69-6.8-5.99-10.04-11.09-10.19-16.03-.11-3.56 1.48-7.02 4.72-10.26 3.25-3.25 6.7-4.83 10.26-4.72 4.94.16 10.04 3.39 16.03 10.19 5.22 5.92 8.01 12.85 7.66 19.02 0 .15-.01.3 0 .46.01.88-.41 1.71-1.16 2.28-.34.26-.59.61-.73 1.02-.19.58-.65 1.04-1.23 1.24-.63.21-1.13.71-1.34 1.34-.19.57-.66 1.03-1.23 1.23-.41.14-.76.39-1.02.73-.56.75-1.38 1.15-2.28 1.16-.15 0-.3 0-.45 0-.34.02-.69.03-1.03.03zm-22.05-32.57c-2.88 2.88-4.23 5.75-4.14 8.78.13 4.29 3.25 9.07 9.52 14.59 5.52 4.87 11.93 7.47 17.59 7.17.2-.01.39-.01.59-.01.34 0 .55-.23.66-.37.5-.67 1.19-1.16 1.99-1.43.38-1.18 1.35-2.15 2.57-2.56.24-.77.73-1.46 1.4-1.96.14-.1.37-.33.36-.66 0-.2 0-.39.01-.59.32-5.65-2.29-12.06-7.17-17.59-5.53-6.27-10.3-9.38-14.59-9.51-3.03-.08-5.91 1.26-8.78 4.14z"/><path d="m50 99.319c-26.77 0-48.54004-21.77-48.54004-48.54s21.77004-48.53999 48.54004-48.53999 48.54 21.77999 48.54 48.53999-21.78 48.54-48.54 48.54zm0-95.07999c-25.66 0-46.54004 20.87999-46.54004 46.53999s20.88004 46.54 46.54004 46.54 46.54-20.88 46.54-46.54-20.88-46.53999-46.54-46.53999z"/></g></svg>