<svg fill="none" height="101" viewBox="0 0 100 101" width="100" xmlns="http://www.w3.org/2000/svg"><g fill="#707070"><path d="m74.0099 78.4092c-.22 0-.45-.04-.67-.11l-.75-.25c-1.46-.48-3.02-.52-4.5-.11-4.58 1.27-9.75-.27-13.48-3.99-1.17-1.16-2.13-2.48-2.86-3.91-1.73-3.39-4.44-6.09-7.83-7.82-1.43-.73-2.75-1.69-3.92-2.85s-2.13-2.48-2.86-3.91c-1.73-3.39-4.44-6.09-7.83-7.82-1.43-.73-2.75-1.69-3.92-2.85-3.55-3.54-5.13-8.5-4.14-12.93.45-2.02.4-3.88-.14-5.53l-.09-.27c-.25-.77-.06-1.61.52-2.19.57-.58 1.41-.78 2.18-.52l.27.09c1.65.54 3.51.58 5.53.13 4.43-1 9.39.59 12.94 4.13 1.17 1.16 2.13 2.48 2.86 3.91 1.73 3.39 4.44 6.09 7.83 7.82 1.44.73 2.75 1.69 3.92 2.86 1.17 1.16 2.13 2.48 2.86 3.91 1.73 3.39 4.44 6.09 7.83 7.82 1.43.73 2.75 1.69 3.92 2.85 3.55 3.54 5.13 8.5 4.14 12.93-.45 2.02-.41 3.88.14 5.53l.09.27c.25.77.06 1.61-.52 2.18-.41.41-.95.63-1.51.63zm-3.85-2.74c1.03 0 2.06.16 3.05.49l.75.25s.09.03.15-.04c.06-.06.04-.12.04-.15l-.09-.27c-.66-2-.72-4.21-.19-6.59.84-3.77-.54-8.02-3.6-11.08-1.02-1.02-2.17-1.85-3.41-2.49-3.77-1.92-6.78-4.92-8.7-8.69-.64-1.25-1.48-2.39-2.49-3.41-1.02-1.02-2.16-1.85-3.41-2.49-3.77-1.92-6.78-4.92-8.7-8.69-.64-1.25-1.47-2.39-2.49-3.41-3.07-3.06-7.31-4.44-11.08-3.59-2.38.53-4.59.47-6.59-.18l-.27-.09s-.09-.03-.15.03-.04.12-.04.15l.09.27c.66 2 .72 4.21.19 6.59-.84 3.77.54 8.02 3.6 11.08 1.02 1.02 2.17 1.85 3.41 2.49 3.77 1.92 6.78 4.92 8.7 8.69.64 1.25 1.48 2.39 2.49 3.41 1.02 1.02 2.17 1.85 3.41 2.49 3.77 1.92 6.78 4.92 8.7 8.69.64 1.25 1.48 2.39 2.49 3.41 3.22 3.22 7.64 4.55 11.53 3.48.86-.24 1.73-.35 2.61-.35z"/><path d="m35.9299 45.3492c-2.5 0-5.24-1.1-7.34-3.2-3.67-3.67-4.29-9.25-1.35-12.19s8.52-2.33 12.19 1.34c1.75 1.74 2.87 3.96 3.15 6.24.29 2.34-.36 4.51-1.8 5.95-1.25 1.25-2.99 1.86-4.85 1.86zm-3.83-15.28c-1.34 0-2.57.42-3.45 1.3-2.17 2.17-1.55 6.46 1.35 9.36s7.19 3.51 9.37 1.34c1.01-1.01 1.45-2.54 1.23-4.29-.23-1.82-1.17-3.67-2.58-5.08-1.73-1.73-3.95-2.64-5.92-2.64z"/><path d="m50.44 59.869c-.35 0-.71-.02-1.08-.07-2.28-.28-4.5-1.4-6.25-3.15-1.75-1.74-2.87-3.96-3.15-6.24-.29-2.34.36-4.51 1.8-5.95s3.6-2.1 5.95-1.81c2.28.28 4.5 1.4 6.25 3.15 1.75 1.74 2.87 3.96 3.15 6.24.29 2.34-.36 4.51-1.8 5.95-1.21 1.22-2.95 1.88-4.87 1.88zm-3.83-15.28c-1.39 0-2.58.45-3.43 1.29-1.01 1.01-1.45 2.54-1.23 4.29.23 1.82 1.17 3.67 2.58 5.08s3.26 2.35 5.08 2.58c1.76.22 3.27-.22 4.28-1.24 1.01-1.01 1.45-2.54 1.23-4.29-.23-1.82-1.17-3.67-2.58-5.08s-3.26-2.35-5.08-2.58c-.29-.04-.58-.05-.86-.05z"/><path d="m65.09 74.469c-2.5 0-5.24-1.1-7.34-3.2-3.67-3.67-4.29-9.25-1.35-12.19s8.52-2.33 12.19 1.34 4.29 9.25 1.35 12.19c-1.25 1.26-2.99 1.86-4.85 1.86zm-3.83-15.28c-1.34 0-2.57.42-3.45 1.3-2.17 2.17-1.55 6.46 1.35 9.36s7.19 3.51 9.37 1.34c2.17-2.17 1.55-6.46-1.35-9.36-1.73-1.73-3.95-2.64-5.92-2.64z"/><path d="m30.468 36.1638-.8762.8775 3.5522 3.5472.8761-.8775z"/><path d="m45.2713 50.938-.8762.8774 3.5522 3.5472.8762-.8774z"/><path d="m59.6245 65.8325-.8762.8775 3.5521 3.5472.8762-.8775z"/><path d="m50 99.319c-26.77 0-48.54004-21.77-48.54004-48.54s21.77004-48.53999 48.54004-48.53999 48.54 21.77999 48.54 48.53999-21.78 48.54-48.54 48.54zm0-95.07999c-25.66 0-46.54004 20.87999-46.54004 46.53999s20.88004 46.54 46.54004 46.54 46.54-20.88 46.54-46.54-20.88-46.53999-46.54-46.53999z"/><path d="m34.5864 64.3344-19.4808 19.4808 1.4142 1.4142 19.4808-19.4808z"/><path d="m83.4864 15.4394-19.4808 19.4808 1.4142 1.4142 19.4808-19.4808z"/></g></svg>