<svg fill="none" height="101" viewBox="0 0 100 101" width="100" xmlns="http://www.w3.org/2000/svg"><g fill="#707070"><path d="m50 99.319c-26.77 0-48.54004-21.77-48.54004-48.54s21.77004-48.53999 48.54004-48.53999 48.54 21.77999 48.54 48.53999-21.78 48.54-48.54 48.54zm0-95.07999c-25.66 0-46.54004 20.87999-46.54004 46.53999s20.88004 46.54 46.54004 46.54 46.54-20.88 46.54-46.54-20.88-46.53999-46.54-46.53999z"/><path d="m28.1462 71.7625-12.5017 12.5017 1.4142 1.4142 12.5017-12.5017z"/><path d="m84.0176 15.8871-11.9784 11.9784 1.4142 1.4142 11.9784-11.9784z"/><path d="m77.4799 71.299s-.07 0-.1 0l-16.41-1.71h-.05c-.24-.04-.44-.16-.59-.32 0 0-.03-.03-.04-.05s-.03-.04-.04-.05l-9.48-13.5c-.23-.32-.24-.74-.04-1.08l10.64-18.11c.04-.06.08-.12.13-.18.04-.05.09-.09.14-.13.15-.11.31-.18.49-.2.09-.01.18 0 .27 0 .04 0 .08.02.12.03l15.03 4.04c.17.05.33.14.46.27l10.85 11.16s.06.06.08.09c.06.07.1.15.14.24.07.16.09.34.06.52 0 .06-.02.13-.05.19-.02.07-.06.13-.09.2l-10.64 18.11c-.18.31-.51.49-.86.49zm-14.77-3.54 14.23 1.48 9.64-16.41-13.23-3.19-10.65 18.12zm-9.94-12.72 8.22 11.71 10.65-18.12-9.22-10-9.64 16.41zm20.63-7.44 11.6 2.8-8.26-8.49-11.44-3.08 8.09 8.77z"/><path d="m26.53 59.1491c-.33 0-.65-.17-.84-.45l-11.54-17.55c-.04-.06-.07-.12-.1-.19-.03-.06-.04-.12-.06-.19-.01-.06-.02-.13-.02-.19 0-.11.02-.23.06-.33.03-.08.07-.17.12-.24.02-.03.05-.07.08-.1l10.27-11.69c.12-.13.27-.24.44-.29l14.8-4.79s.08-.02.12-.03c.09-.02.18-.02.27-.02.17.01.34.07.49.17.06.04.11.08.16.13s.09.11.13.17l11.54 17.55c.21.33.22.75.01 1.08l-8.79 13.97s-.02.02-.02.04c-.13.19-.32.32-.52.39 0 0-.07.02-.11.03 0 0-.03 0-.04 0l-16.3 2.53c-.05 0-.1.01-.15.01zm-9.97-17.99 10.46 15.9 14.14-2.2-11.54-17.56-13.05 3.85zm14.72-4.95 11.54 17.56 7.62-12.11-10.46-15.9-8.71 10.45zm-5.45-6.46-7.82 8.9 11.45-3.38 7.64-9.17z"/><path d="m49.6 68.169h-8.24v-8.24h8.24zm-6.24-2h4.24v-4.24h-4.24z"/><path d="m68.62 83.489h-8.24v-8.24h8.24zm-6.24-2h4.24v-4.24h-4.24z"/><path d="m24.73 70.229h-8.24v-8.24h8.24zm-6.24-2h4.24v-4.24h-4.24z"/><path d="m60.58 29.8191h-8.24v-8.24h8.24zm-6.24-2h4.24v-4.24h-4.24z"/></g></svg>