<svg fill="none" height="101" viewBox="0 0 100 101" width="100" xmlns="http://www.w3.org/2000/svg"><g fill="#707070"><path d="m50 99.319c-26.77 0-48.54004-21.77-48.54004-48.54s21.77004-48.53999 48.54004-48.53999 48.54 21.77999 48.54 48.53999-21.78 48.54-48.54 48.54zm0-95.07999c-25.66 0-46.54004 20.87999-46.54004 46.53999s20.88004 46.54 46.54004 46.54 46.54-20.88 46.54-46.54-20.88-46.53999-46.54-46.53999z"/><path d="m67.2 39.869c-.92 0-1.52-.06-1.61-.07l-.79-.09-.09-.79c-.03-.3-.78-7.4 3.27-11.46 4.06-4.06 11.16-3.33 11.46-3.3l.79.09.09.79c.03.3.78 7.4-3.27 11.46-2.93 2.94-7.46 3.37-9.85 3.37zm-.55-2.01c1.85.05 6.35-.12 8.99-2.77 2.65-2.66 2.81-7.14 2.75-8.99-1.84-.05-6.35.12-8.99 2.77-2.65 2.66-2.81 7.14-2.75 8.99z"/><path d="m72.8614 30.2227-7.8619 7.8784 1.4157 1.4127 7.8619-7.8783z"/><path d="m59.99 39.7791c-3.5 0-10.08-.62-14.33-4.88-5.88-5.9-4.79-16.26-4.74-16.7l.09-.79.79-.09c.44-.05 10.8-1.12 16.69 4.77 5.88 5.9 4.79 16.26 4.74 16.7l-.09.79-.79.09c-.12.01-1.01.11-2.36.11zm-17.14-20.53c-.12 2.47-.08 9.92 4.23 14.23 4.31 4.32 11.75 4.37 14.22 4.26.12-2.47.08-9.91-4.23-14.23-4.32-4.33-11.75-4.38-14.22-4.26z"/><path d="m49.3819 24.3766-1.4157 1.4127 13.5622 13.5907 1.4157-1.4128z"/><path d="m58.23 81.5191h-18.34l-16.23-49.19h18.31l8.03 28.93 5.18-18.15h16.14l-13.1 38.41zm-16.89-2h15.46l11.74-34.41h-11.84l-6.72 23.52-9.52-34.3h-14.03l14.92 45.19z"/></g></svg>