<?xml version="1.0" encoding="UTF-8"?>
<svg id="Layer_1" data-name="Layer 1" xmlns="http://www.w3.org/2000/svg" viewBox="0 0 2000 2000">
  <defs>
    <style>
      .cls-1 {
        fill: #e1e43c;
      }

      .cls-1, .cls-2 {
        stroke-width: 0px;
      }

      .cls-2 {
        fill: #a7a8a9;
      }
    </style>
  </defs>
  <polygon class="cls-2" points="13.1 789.26 467.18 368.66 467.18 1608.86 193.73 1608.86 193.73 789.26 13.1 789.26"/>
  <path class="cls-2" d="M1119.24,1394.48c-161.75-5.38-247.56-131.39-247.56-378.68v-57.31c0-249.42,86.08-379.18,254.88-379.18,45.1,0,84.18,9.95,117.19,29.25h265.88v-80.52c-92.67-104.02-226.17-159.39-384.77-159.39-310.59,0-526.64,220.77-526.64,591.51v57.31c0,367.52,202.62,589.52,521.01,591.38v-214.38Z"/>
  <polygon class="cls-1" points="1705.29 646.75 1705.29 387.18 1547.88 387.18 1547.88 646.75 1266.26 646.75 1266.26 816.86 1547.88 816.86 1547.88 1076.43 1705.29 1076.43 1705.29 816.86 1986.9 816.86 1986.9 646.75 1705.29 646.75"/>
</svg>